# xmcd
# 
# Track frame offsets:
#     187
#     22800
#     40115
#     53100
#     69500
#     88865
#     104107
#     117940
#     135685
#     152710
#     167745
#     183757
#     201167
#     216357
#     233325
#     251010
#     263687
# 
# Disc length: 3808
# 
# Revision: 4
# Processed by: cddbd v1.5.2PL0 Copyright (c) Steve Scherf et al.
# Submitted via: fre:ac v1.0.31
# 
DISCID=e70ede11
DTITLE=XTC - Nonsuch
DYEAR=1992
DGENRE=Post Punk/New Wave
TTITLE0=The Ballad of Peter Pumpkinhead
TTITLE1=My Bird Performs
TTITLE2=Dear Madam Barnum
TTITLE3=Humble Daisy
TTITLE4=The Smartest Monkeys
TTITLE5=The Disappointed
TTITLE6=Holly Up on Poppy
TTITLE7=Cricidile
TTITLE8=Rook
TTITLE9=Omnibus
TTITLE10=That Wave
TTITLE11=The She Appeared
TTITLE12=War Dance
TTITLE13=Wrapped in Grey
TTITLE14=The Ugly Underneath
TTITLE15=Bungalow
TTITLE16=Books Are Burning
EXTD=YEAR: 1992
EXTT0=
EXTT1=
EXTT2=
EXTT3=
EXTT4=
EXTT5=
EXTT6=
EXTT7=
EXTT8=
EXTT9=
EXTT10=
EXTT11=
EXTT12=
EXTT13=
EXTT14=
EXTT15=
EXTT16=
PLAYORDER=
